<?xml version="1.0" standalone="no"?>
<!DOCTYPE svg PUBLIC "-//W3C//DTD SVG 20010904//EN"
 "http://www.w3.org/TR/2001/REC-SVG-20010904/DTD/svg10.dtd">
<svg version="1.0" xmlns="http://www.w3.org/2000/svg"
 width="224.000000pt" height="188.000000pt" viewBox="0 0 224.000000 188.000000"
 preserveAspectRatio="xMidYMid meet">

<g transform="translate(0.000000,188.000000) scale(0.100000,-0.100000)"
fill="#000000" stroke="none">
<path d="M174 1750 c-56 -22 -54 0 -54 -698 l0 -644 29 -29 29 -29 331 0 c182
0 331 -3 331 -7 0 -5 -11 -48 -23 -98 l-23 -90 -57 -5 c-61 -6 -81 -18 -75
-46 3 -18 24 -19 465 -22 l462 -2 7 22 c9 31 -19 48 -82 48 l-51 0 -16 58 c-8
31 -18 76 -22 100 l-7 42 327 0 c205 0 333 4 346 10 49 27 49 24 49 699 l0
631 -29 32 -29 33 -944 2 c-519 1 -953 -2 -964 -7z m1894 -593 l2 -527 -26
-10 c-16 -6 -362 -10 -922 -10 -796 0 -900 2 -920 16 l-22 15 0 513 c0 386 3
515 12 524 9 9 227 12 943 10 l930 -3 3 -528z m-897 -625 c45 -37 16 -122 -41
-122 -30 0 -70 39 -70 69 0 61 63 91 111 53z m196 -272 c12 -47 22 -91 23 -97
0 -10 -58 -13 -260 -13 -241 0 -260 1 -260 18 0 18 13 79 31 145 l10 37 216
-2 217 -3 23 -85z"/>
</g>
</svg>
